<svg xmlns="http://www.w3.org/2000/svg" width="627" height="627" viewBox="0 0 627 627">
<g>
<path d="M 370.00 477.22 C366.98,478.28 362.59,479.75 360.25,480.48 L 356.00 481.80 L 355.89 451.65 C355.83,435.07 355.65,409.46 355.49,394.75 L 355.48 394.18 C355.27,374.72 355.20,368.69 356.88,368.16 C357.63,367.92 358.74,368.79 360.34,370.05 L 360.44 370.13 C366.02,374.52 374.24,378.00 379.03,378.00 C382.99,378.00 384.72,377.27 390.59,373.13 C396.98,368.63 407.08,358.30 416.41,346.75 C418.52,344.14 420.64,342.00 421.12,342.00 C421.62,342.00 422.00,364.48 422.00,393.37 L 422.00 444.75 L 417.75 448.65 C413.14,452.89 400.70,462.00 399.52,462.00 C399.12,462.00 396.76,463.37 394.27,465.05 C388.35,469.04 376.90,474.78 370.00,477.22 ZM 332.50 485.83 C331.27,486.63 301.70,487.40 300.98,486.66 C300.69,486.36 295.96,485.41 290.48,484.55 C276.64,482.37 266.12,480.00 265.45,478.92 C265.14,478.41 264.01,478.00 262.94,478.00 C261.05,478.00 261.00,476.96 261.00,440.89 C261.00,405.94 261.10,403.83 262.75,404.53 C273.04,408.89 283.77,409.10 290.59,405.08 C292.89,403.72 293.87,403.45 293.10,404.38 C291.29,406.56 292.43,407.74 295.84,407.24 C301.44,406.41 300.66,409.79 293.34,418.00 C292.12,419.37 290.98,420.95 290.81,421.50 C290.61,422.13 298.19,422.68 311.50,423.00 L 332.50 423.50 L 333.00 454.35 C333.32,474.37 333.15,485.42 332.50,485.83 ZM 242.97 430.00 C243.26,450.62 243.27,467.82 242.98,468.22 C242.46,468.94 232.00,464.51 231.02,463.16 C230.74,462.76 228.02,460.81 225.00,458.82 C221.98,456.84 217.93,453.82 216.00,452.13 C214.07,450.43 210.25,447.15 207.50,444.84 C204.75,442.52 201.42,439.32 200.09,437.71 L 197.68 434.80 L 199.48 429.65 C202.59,420.73 209.08,405.71 212.18,400.24 C216.59,392.45 221.89,390.41 219.93,397.26 C219.42,399.03 219.00,401.95 219.00,403.74 L 219.00 407.00 L 226.55 407.00 C233.19,407.00 234.38,406.71 236.50,404.59 C237.83,403.26 239.21,401.01 239.57,399.59 C239.92,398.16 240.62,397.00 241.11,397.00 C241.60,397.00 242.10,395.99 242.22,394.75 C242.34,393.51 242.68,409.38 242.97,430.00 ZM 380.86 153.07 C375.84,155.63 368.53,155.36 359.00,152.27 C354.88,150.93 350.72,149.42 349.76,148.92 C348.81,148.41 347.22,148.00 346.24,148.00 C343.79,148.00 340.00,145.21 340.00,143.42 C340.00,142.61 341.11,141.53 342.47,141.01 C345.41,139.89 346.81,136.78 350.93,122.26 C354.42,109.92 354.60,107.85 352.48,104.61 C351.10,102.51 351.11,102.15 352.58,100.93 C353.96,99.79 355.61,99.93 363.35,101.85 C375.76,104.92 383.88,107.85 387.65,110.63 C400.15,119.83 396.08,145.31 380.86,153.07 ZM 143.24 261.00 C139.34,268.80 135.83,274.62 134.91,274.79 C133.07,275.13 131.37,273.36 130.85,270.54 C130.46,268.45 122.81,264.15 108.69,258.08 C101.85,255.13 100.60,254.88 98.51,255.99 C95.64,257.53 93.00,256.71 93.00,254.28 C93.00,251.72 103.40,229.47 106.50,225.41 C112.70,217.28 124.56,215.24 135.05,220.49 C145.56,225.75 150.01,232.06 149.99,241.71 C149.98,246.84 149.21,249.04 143.24,261.00 ZM 472.81 221.80 C472.33,227.54 469.87,227.11 462.97,220.05 C458.93,215.92 457.00,213.15 457.00,211.47 C457.00,209.22 457.39,209.00 461.31,209.00 C465.27,209.00 466.26,208.41 473.36,201.88 C477.61,197.96 480.89,194.55 480.64,194.31 C480.40,194.07 474.05,195.92 466.54,198.43 C449.66,204.07 448.55,204.15 449.28,199.69 C449.57,197.86 451.88,191.20 454.41,184.89 C456.93,178.58 459.00,173.06 459.00,172.63 C459.00,171.55 454.47,175.16 448.25,181.20 C443.96,185.37 443.00,186.92 443.00,189.68 C443.00,195.25 440.44,195.09 434.78,189.16 C428.93,183.02 428.76,180.55 434.20,180.40 C438.30,180.28 443.50,176.50 455.25,165.10 C460.88,159.64 462.00,158.01 462.00,155.28 C462.00,152.40 462.32,152.00 464.65,152.00 C467.78,152.00 475.00,159.19 475.00,162.29 C475.00,163.37 473.26,168.36 471.13,173.38 C466.35,184.65 464.61,189.95 465.42,190.76 C465.76,191.10 471.88,189.44 479.00,187.08 C487.17,184.37 492.85,183.00 494.35,183.37 C497.80,184.24 504.19,191.64 503.81,194.32 C503.55,196.17 502.94,196.46 499.84,196.22 C496.41,195.95 495.47,196.63 484.65,207.03 C474.51,216.78 473.08,218.56 472.81,221.80 ZM 362.97 308.04 C362.50,308.73 362.07,309.39 361.66,310.00 C359.76,312.85 358.50,314.75 357.66,314.58 C355.97,314.24 355.98,305.62 356.00,279.81 C356.00,277.03 356.01,274.06 356.01,270.87 C356.01,226.44 356.66,206.68 357.99,210.47 C358.59,212.17 359.10,211.96 363.08,208.42 C365.51,206.26 368.56,203.59 369.86,202.49 L 372.22 200.50 L 371.86 234.75 L 371.50 269.00 L 368.00 269.01 C366.08,269.02 363.45,269.31 362.17,269.65 C359.93,270.25 360.02,270.45 364.61,275.11 C369.22,279.79 370.92,283.00 368.79,283.00 C368.21,283.00 368.36,283.75 369.13,284.69 C370.30,286.14 370.29,286.26 369.08,285.53 C368.02,284.89 367.82,285.09 368.29,286.32 C368.68,287.32 368.46,287.88 367.76,287.74 C367.08,287.60 366.52,288.94 366.41,291.00 C366.31,292.92 366.12,294.95 365.99,295.50 C365.87,296.05 365.82,297.12 365.88,297.87 C365.98,299.04 366.25,299.04 367.66,297.87 C369.15,296.64 369.22,296.71 368.26,298.50 C367.68,299.60 367.09,300.95 366.97,301.50 C366.84,302.05 365.04,304.99 362.97,308.04 ZM 502.50 272.08 C496.33,275.57 489.00,275.16 489.00,271.34 C489.00,270.48 486.26,263.45 482.92,255.73 C479.57,248.00 476.76,240.53 476.67,239.13 C476.47,236.15 479.06,235.16 482.40,236.95 C484.21,237.91 486.40,237.29 496.52,232.95 C511.76,226.42 513.73,225.22 514.92,221.80 C515.56,219.97 516.60,219.00 517.93,219.00 C520.25,219.00 521.72,221.58 528.57,237.60 C531.07,243.45 533.77,249.25 534.58,250.49 C535.97,252.61 535.84,252.93 532.43,255.93 C530.22,257.87 527.96,258.99 526.65,258.81 C524.41,258.49 524.30,257.70 525.57,251.32 C526.03,249.01 525.50,246.59 523.66,242.57 C522.26,239.50 520.75,237.00 520.31,237.00 C518.01,237.00 509.46,240.98 509.24,242.15 C509.10,242.89 509.89,244.98 511.00,246.79 C512.84,249.79 513.34,250.03 516.51,249.43 C519.53,248.87 520.00,249.04 520.00,250.73 C520.00,251.81 519.20,253.41 518.23,254.29 C515.56,256.71 507.85,259.95 504.72,259.98 C500.91,260.01 500.00,257.27 503.04,254.97 C505.16,253.37 505.30,252.80 504.45,249.35 C503.29,244.66 500.87,244.00 495.26,246.87 C488.82,250.15 488.42,251.15 491.01,257.52 C493.52,263.71 496.92,266.68 502.04,267.17 C506.38,267.58 506.59,269.78 502.50,272.08 ZM 168.43 215.97 C163.94,220.77 160.16,222.44 159.86,219.75 C159.78,219.06 159.81,216.89 159.93,214.91 C160.15,211.16 155.07,198.77 146.40,181.95 C143.98,177.24 142.00,172.86 142.00,172.22 C142.00,170.07 146.84,167.72 149.97,168.34 C151.59,168.67 160.47,171.96 169.71,175.66 C183.76,181.29 187.36,182.36 191.75,182.21 C196.29,182.05 197.00,182.28 197.00,183.90 C197.00,186.19 190.61,194.10 186.02,197.49 C182.22,200.29 180.00,199.50 180.00,195.35 C180.00,192.48 175.90,190.45 173.12,191.93 C171.01,193.07 162.99,201.64 163.03,202.73 C163.13,205.02 166.37,207.50 169.27,207.50 C174.12,207.50 173.86,210.17 168.43,215.97 ZM 312.40 146.05 C307.22,147.25 299.92,147.19 297.75,145.92 C295.41,144.56 295.53,141.77 298.00,140.23 C299.70,139.17 300.00,137.90 300.00,131.65 C300.00,124.35 299.98,124.28 294.19,115.91 C290.99,111.28 286.72,106.41 284.69,105.08 C277.90,100.63 280.75,98.00 292.35,98.00 C296.47,98.00 300.55,98.27 301.42,98.61 C303.30,99.33 303.53,102.65 301.75,103.25 C300.22,103.77 301.89,107.24 306.04,112.22 L 308.78 115.50 L 311.58 109.79 C314.35,104.13 314.36,104.06 312.45,101.95 C310.55,99.85 310.55,99.80 312.51,98.37 C313.88,97.37 316.50,97.01 321.00,97.21 C326.88,97.47 327.53,97.72 327.82,99.75 C328.00,100.99 327.69,102.00 327.15,102.00 C324.61,102.00 319.52,108.01 315.82,115.37 C311.92,123.12 311.77,123.75 312.33,130.38 C312.79,135.92 313.41,137.81 315.41,139.91 C318.50,143.13 317.67,144.82 312.40,146.05 ZM 266.95 399.90 C269.58,404.82 260.85,399.64 253.36,391.85 C247.69,385.95 236.78,370.17 237.29,368.62 C237.86,366.93 244.26,365.16 250.05,365.08 C254.55,365.01 256.48,365.55 260.20,367.91 C265.67,371.38 267.55,375.79 266.60,382.94 C266.03,387.23 266.20,387.77 268.43,388.96 C272.36,391.07 278.37,390.56 283.18,387.72 C289.07,384.24 295.69,378.47 314.59,360.41 C330.91,344.82 337.58,339.00 339.14,339.00 C341.05,339.00 339.80,341.34 336.28,344.34 C334.24,346.08 327.83,352.06 322.03,357.64 C297.45,381.30 290.31,387.35 282.08,391.48 C276.73,394.17 274.72,394.31 268.25,392.42 C266.25,391.84 266.00,392.12 266.00,394.95 C266.00,396.70 266.43,398.93 266.95,399.90 ZM 254.36 156.41 C246.58,158.94 239.48,161.00 238.58,161.00 C236.24,161.00 235.51,158.29 237.06,155.40 C238.22,153.22 237.98,151.64 235.10,142.21 C230.22,126.23 228.32,122.31 224.90,121.12 C221.82,120.04 220.99,117.07 223.25,115.23 C224.46,114.24 237.82,109.98 239.61,110.02 C240.10,110.02 241.12,110.42 241.87,110.90 C243.01,111.62 242.94,112.30 241.43,114.86 L 239.60 117.94 L 244.42 132.52 C247.07,140.54 249.87,147.73 250.64,148.50 C251.84,149.70 252.64,149.69 256.22,148.42 C261.41,146.59 264.00,144.32 264.01,141.60 C264.04,137.13 265.19,135.00 267.58,135.00 C269.47,135.00 270.13,135.78 271.02,139.07 C272.42,144.27 271.93,150.08 270.00,151.06 C269.17,151.48 262.14,153.89 254.36,156.41 ZM 278.47 311.50 L 277.79 324.50 L 261.00 342.25 L 261.17 311.87 C261.27,295.17 261.60,285.33 261.92,290.00 C262.24,294.67 263.00,299.35 263.62,300.39 C264.53,301.93 264.87,300.66 265.47,293.56 L 266.19 284.83 L 278.50 276.87 L 278.82 287.69 C279.00,293.63 278.84,304.35 278.47,311.50 ZM 419.54 174.94 C418.49,176.64 415.65,176.18 410.40,173.46 C403.83,170.04 399.46,165.35 401.07,163.42 C401.71,162.64 403.32,162.00 404.64,162.00 C406.56,162.00 408.14,160.30 412.44,153.64 C421.06,140.28 424.26,133.35 422.95,130.90 C421.49,128.17 422.43,126.00 425.08,126.00 C428.18,126.00 438.95,131.99 440.72,134.70 C442.58,137.53 441.04,140.00 437.43,140.00 C434.56,140.00 432.20,143.05 424.02,157.32 C418.28,167.35 417.91,168.36 419.01,171.01 C419.66,172.59 419.90,174.36 419.54,174.94 ZM 222.54 169.96 C221.02,171.54 217.17,174.23 213.98,175.93 C208.74,178.73 208.02,178.88 206.62,177.48 C205.43,176.29 205.30,175.33 206.07,173.32 C206.91,171.09 206.43,169.61 202.78,163.20 C195.09,149.71 189.69,142.51 187.17,142.38 C183.88,142.22 182.29,140.37 183.59,138.22 C185.03,135.83 197.03,128.00 199.25,128.00 C201.64,128.00 202.53,130.54 201.18,133.50 C200.24,135.56 200.83,137.07 205.71,145.18 C214.69,160.07 217.34,163.46 220.25,163.81 C221.68,163.98 223.41,164.78 224.08,165.60 C225.08,166.80 224.80,167.60 222.54,169.96 ZM 166.86 437.39 C165.59,438.27 164.24,439.00 163.85,439.00 C163.46,439.00 158.77,433.49 153.42,426.75 C148.07,420.01 143.03,413.73 142.23,412.80 C141.12,411.50 141.01,410.41 141.77,408.24 C142.50,406.13 142.39,404.69 141.36,402.72 C140.03,400.17 140.14,399.86 143.78,396.22 C146.34,393.66 150.29,386.89 155.76,375.69 C160.25,366.50 166.00,355.76 168.54,351.83 C175.06,341.75 186.44,330.46 191.44,329.12 C193.61,328.53 195.56,328.23 195.77,328.44 C195.98,328.65 193.53,330.62 190.33,332.81 C178.02,341.24 171.44,350.44 157.66,378.50 C153.60,386.75 148.95,395.01 147.32,396.85 C144.61,399.91 144.39,400.68 144.81,405.85 C145.22,411.02 145.83,412.22 151.95,420.00 C155.63,424.67 159.68,430.00 160.95,431.83 C162.77,434.47 163.70,435.02 165.38,434.47 C166.54,434.09 169.71,433.49 172.42,433.14 C178.08,432.40 178.50,431.85 183.99,418.00 C193.40,394.26 200.65,381.69 211.65,370.03 C218.70,362.55 223.45,359.30 224.60,361.16 C225.05,361.89 224.38,362.98 222.92,363.92 C217.92,367.13 209.02,376.37 204.71,382.82 C200.09,389.74 188.00,414.10 188.00,416.49 C188.00,418.06 181.66,430.74 179.37,433.75 C177.12,436.71 176.54,436.95 173.03,436.39 C170.29,435.95 168.50,436.24 166.86,437.39 ZM 196.28 371.55 C192.06,373.45 189.26,373.38 185.00,371.25 C180.47,368.99 177.54,363.26 178.45,358.44 C179.19,354.49 183.93,348.61 188.10,346.45 C189.64,345.65 192.99,345.00 195.55,345.00 C199.50,345.00 200.71,345.51 203.60,348.40 C206.49,351.29 207.00,352.50 207.00,356.44 C207.00,363.06 203.18,368.46 196.28,371.55 ZM 319.08 349.73 C316.72,351.32 314.24,352.00 310.84,352.00 C306.73,352.00 305.43,351.50 302.50,348.75 C297.57,344.13 297.44,337.13 302.18,331.07 C308.16,323.40 320.21,322.28 324.96,328.94 C329.38,335.15 326.71,344.58 319.08,349.73 ZM 360.92 145.14 C364.39,147.95 371.03,147.63 374.41,144.49 C380.11,139.21 383.49,126.05 381.05,118.66 C378.59,111.19 369.53,108.15 366.60,113.81 C365.02,116.85 361.49,129.23 359.72,137.89 C358.68,142.97 358.75,143.38 360.92,145.14 ZM 127.47 253.01 C137.16,257.20 137.84,257.14 140.57,251.87 C144.05,245.14 140.39,238.26 130.72,233.36 C124.63,230.27 114.74,229.81 110.74,232.44 C107.92,234.28 105.48,239.20 106.31,241.37 C106.98,243.12 115.79,247.97 127.47,253.01 ZM 223.75 320.88 C223.06,320.82 221.82,320.98 221.00,321.24 C220.18,321.51 217.25,320.91 214.50,319.91 C211.75,318.91 208.31,318.07 206.86,318.04 C203.71,317.99 203.00,316.49 203.00,309.92 L 203.00 305.00 L 237.00 305.00 L 237.00 311.93 C237.00,318.24 236.80,318.93 234.75,319.59 C230.88,320.83 227.46,321.23 223.75,320.88 ZM 369.34 368.40 C371.87,372.26 369.86,372.26 364.14,368.41 C358.31,364.48 345.00,352.26 345.00,350.83 C345.00,349.62 354.91,345.02 357.56,345.01 C360.51,345.00 363.36,348.03 364.96,352.89 C366.39,357.21 371.89,363.00 374.57,363.00 C379.07,363.00 389.77,354.36 398.00,344.08 C404.84,335.54 406.01,333.61 405.44,331.80 C405.12,330.81 405.32,330.00 405.87,330.00 C407.69,330.00 408.12,333.86 406.62,336.70 C405.80,338.24 402.21,343.18 398.62,347.67 C388.48,360.41 377.15,367.75 371.94,364.97 C368.73,363.25 367.25,365.20 369.34,368.40 ZM 274.16 353.30 C267.98,361.07 260.00,365.91 260.00,361.90 C260.00,361.47 261.79,360.12 263.99,358.89 C266.18,357.66 269.13,354.98 270.54,352.94 C275.01,346.49 298.24,324.55 304.75,320.62 C313.46,315.37 316.20,316.30 307.88,321.68 C300.23,326.63 281.14,344.53 274.16,353.30 ZM 192.72 368.39 C193.12,368.79 194.36,368.87 195.47,368.57 C196.59,368.27 198.23,368.02 199.12,368.01 C200.25,368.00 200.95,366.73 201.41,363.83 C202.24,358.64 200.51,356.56 195.50,356.70 C193.05,356.77 191.67,356.25 191.00,355.00 C190.29,353.68 190.43,353.05 191.52,352.63 C194.60,351.45 193.06,349.77 189.50,350.43 C187.22,350.86 186.00,350.71 186.00,349.99 C186.00,349.38 185.58,349.14 185.06,349.46 C184.55,349.78 184.15,351.88 184.18,354.14 C184.26,359.42 186.96,362.39 190.91,361.52 C192.81,361.10 194.10,361.41 195.01,362.51 C196.14,363.87 196.02,364.18 194.16,364.67 C192.02,365.23 191.33,367.00 192.72,368.39 ZM 307.00 346.50 C307.00,347.64 308.24,348.00 312.20,348.00 C316.47,348.00 317.89,347.52 320.20,345.31 C321.74,343.84 323.00,342.04 323.00,341.31 C323.00,339.28 319.63,339.76 318.23,342.00 C317.55,343.10 316.28,344.00 315.42,344.00 C314.32,344.00 314.05,343.42 314.50,342.00 C315.21,339.78 314.04,339.36 312.22,341.18 C310.23,343.17 309.56,341.15 311.49,339.01 C312.93,337.42 313.01,337.00 311.85,337.00 C311.05,337.00 309.86,337.54 309.20,338.20 C307.39,340.01 307.63,335.88 309.47,333.44 C312.67,329.21 309.81,327.19 306.00,331.00 C303.43,333.57 303.02,345.00 305.50,345.00 C306.33,345.00 307.00,345.67 307.00,346.50 ZM 362.83 328.90 C358.21,332.29 354.93,332.83 353.00,330.50 C351.94,329.22 352.23,329.00 355.03,329.00 C359.61,329.00 363.85,325.43 370.50,316.00 C376.21,307.90 378.80,305.75 376.93,310.69 C375.12,315.44 367.18,325.70 362.83,328.90 ZM 178.63 323.92 C176.78,325.06 174.98,326.00 174.63,326.00 C174.28,326.00 174.00,323.56 174.00,320.57 C174.00,315.64 174.29,314.93 177.08,312.95 C181.22,309.99 182.39,311.32 182.12,318.67 C182.03,321.12 181.24,322.31 178.63,323.92 ZM 159.32 193.79 C160.10,194.80 161.06,194.37 163.66,191.85 C165.50,190.07 167.00,188.30 167.00,187.92 C167.00,187.01 156.07,182.59 155.42,183.24 C154.85,183.82 157.81,191.84 159.32,193.79 ZM 417.08 355.36 C417.12,357.09 417.39,357.93 417.66,357.24 C417.94,356.55 418.58,356.24 419.09,356.55 C419.59,356.86 420.00,355.76 420.00,354.09 C420.00,351.81 419.63,351.20 418.50,351.64 C417.58,351.99 417.03,353.43 417.08,355.36 ZM 223.38 322.45 C222.72,324.18 222.00,324.50 222.00,323.06 C222.00,322.54 222.44,321.84 222.99,321.51 C223.56,321.16 223.72,321.56 223.38,322.45 Z" fill="rgb(42,71,41)"/>
<path d="M 266.95 399.90 C266.43,398.93 266.00,396.70 266.00,394.95 C266.00,392.12 266.25,391.84 268.25,392.42 C274.72,394.31 276.73,394.17 282.08,391.48 C290.31,387.35 297.45,381.30 322.03,357.64 C327.83,352.06 334.24,346.08 336.28,344.34 C339.80,341.34 341.05,339.00 339.14,339.00 C337.58,339.00 330.91,344.82 314.59,360.41 C295.69,378.47 289.07,384.24 283.18,387.72 C278.37,390.56 272.36,391.07 268.43,388.96 C266.20,387.77 266.03,387.23 266.60,382.94 C267.55,375.79 265.67,371.38 260.20,367.91 C256.48,365.55 254.55,365.01 250.05,365.08 C244.26,365.16 237.86,366.93 237.29,368.62 C236.92,369.74 242.53,378.30 247.80,385.19 C245.77,382.64 243.82,379.95 242.06,377.25 C239.10,372.71 236.23,369.00 235.69,369.00 C234.27,369.00 225.15,376.73 220.35,382.00 C212.12,391.03 207.41,399.87 195.98,427.76 C190.71,440.61 183.35,451.03 175.15,457.25 C171.70,459.86 167.82,462.00 166.51,462.00 C164.13,462.00 161.67,459.41 154.15,449.00 C152.36,446.52 147.41,439.77 143.14,434.00 C126.25,411.14 124.26,408.40 122.53,405.72 C121.54,404.19 120.90,402.80 121.11,402.62 C121.33,402.45 123.89,401.02 126.82,399.46 C134.30,395.45 137.11,391.79 145.12,375.68 C156.93,351.94 162.39,343.42 171.90,333.90 C182.30,323.49 187.67,321.00 199.68,321.00 C206.35,321.00 208.21,321.44 214.69,324.56 C220.90,327.55 222.00,328.43 221.48,330.06 C221.10,331.25 221.33,332.00 222.07,332.00 C223.87,332.00 238.92,347.82 239.56,350.37 C239.98,352.07 241.34,352.86 245.52,353.83 C252.56,355.47 252.57,355.47 272.00,336.48 C287.32,321.52 297.16,313.79 303.99,311.34 C308.84,309.61 318.18,309.69 321.64,311.49 C323.21,312.32 325.30,312.99 326.27,312.99 C327.25,313.00 328.47,314.11 328.99,315.47 C329.50,316.82 331.76,319.26 334.01,320.89 C336.26,322.52 338.92,324.90 339.92,326.18 C340.93,327.45 344.30,330.26 347.42,332.40 C351.71,335.36 353.37,336.03 354.25,335.15 C355.12,334.28 354.48,333.05 351.60,330.10 C347.81,326.23 347.81,326.20 350.15,325.49 C353.85,324.36 356.68,321.35 366.11,308.50 C380.19,289.31 381.00,288.14 381.00,287.02 C381.00,286.44 379.51,284.51 377.68,282.73 C372.13,277.33 367.38,271.57 369.38,272.68 C370.68,273.40 372.31,273.41 374.60,272.71 C377.47,271.83 378.40,272.02 381.35,274.09 C388.66,279.24 395.60,284.87 397.78,287.42 C399.83,289.82 400.21,289.93 401.60,288.54 C403.91,286.24 405.00,286.67 405.00,289.88 C405.00,291.46 405.67,293.32 406.50,294.00 C407.33,294.68 408.00,296.56 408.00,298.16 C408.00,300.74 408.31,301.04 410.75,300.79 C413.10,300.54 413.55,300.90 413.82,303.31 C414.25,307.02 416.33,307.67 419.61,305.10 C424.61,301.16 429.05,303.19 424.56,307.36 C423.15,308.66 422.00,310.00 422.00,310.33 C422.00,310.65 423.79,311.41 425.98,312.00 C428.17,312.59 430.44,313.95 431.02,315.03 C431.60,316.12 432.62,317.01 433.29,317.03 C433.95,317.05 436.21,319.06 438.29,321.50 L 442.08 325.93 L 441.79 334.22 L 441.50 342.50 L 433.92 335.25 C426.56,328.20 424.03,326.68 423.97,329.25 C423.94,330.95 413.74,344.35 403.99,355.51 C388.68,373.03 381.04,377.76 368.52,370.94 C370.69,371.85 371.05,371.00 369.34,368.40 C367.25,365.20 368.73,363.25 371.94,364.97 C377.15,367.75 388.48,360.41 398.62,347.67 C402.21,343.18 405.80,338.24 406.62,336.70 C408.12,333.86 407.69,330.00 405.87,330.00 C405.32,330.00 405.12,330.81 405.44,331.80 C406.01,333.61 404.84,335.54 398.00,344.08 C389.77,354.36 379.07,363.00 374.57,363.00 C371.89,363.00 366.39,357.21 364.96,352.89 C363.36,348.03 360.51,345.00 357.56,345.01 C354.91,345.02 345.00,349.62 345.00,350.83 C345.00,351.92 352.68,359.23 358.93,364.40 C357.38,363.19 355.76,361.87 354.04,360.44 C344.99,352.87 343.69,352.09 341.78,353.12 C340.60,353.75 330.38,363.34 319.07,374.43 C307.76,385.52 295.58,396.60 292.00,399.05 C285.56,403.46 285.42,403.50 277.00,403.50 C269.50,403.50 267.96,403.18 263.90,400.75 C262.28,399.77 260.45,398.38 258.53,396.69 C264.24,401.48 268.98,403.69 266.95,399.90 ZM 371.50 268.56 L 372.22 200.50 L 369.86 202.49 C368.56,203.59 365.51,206.26 363.08,208.42 C359.10,211.96 358.59,212.17 357.99,210.47 C356.66,206.68 356.01,226.44 356.01,270.87 C356.01,274.06 356.00,277.03 356.00,279.81 L 356.00 279.82 C356.00,283.91 355.99,287.57 356.00,290.84 C355.99,286.16 355.99,280.67 355.99,274.24 C356.00,270.55 356.00,266.57 356.00,262.25 L 356.00 208.26 L 364.39 200.05 C365.66,198.81 366.80,197.66 367.83,196.64 C371.82,192.64 374.03,190.43 375.29,190.88 C377.18,191.55 376.95,198.20 377.39,213.80 C377.94,233.02 378.41,238.82 379.50,239.92 C380.73,241.15 381.04,241.02 381.82,238.92 C382.32,237.59 383.04,234.25 383.43,231.50 C385.09,219.65 385.15,219.56 393.24,217.67 C397.33,216.71 403.44,216.09 407.24,216.24 C413.85,216.49 413.98,216.55 413.99,219.24 C414.00,222.20 414.70,225.69 418.06,239.50 C419.27,244.45 420.46,251.45 420.70,255.07 L 421.15 261.63 L 417.32 262.82 C414.26,263.77 394.53,266.24 371.50,268.56 ZM 333.13 464.62 C333.10,461.52 333.06,458.09 333.00,454.35 L 332.50 423.50 L 311.50 423.00 C298.19,422.68 290.61,422.13 290.81,421.50 C290.98,420.95 292.12,419.37 293.34,418.00 C300.66,409.79 301.44,406.41 295.84,407.24 C292.43,407.74 291.29,406.56 293.10,404.38 C293.87,403.45 292.89,403.72 290.59,405.08 C287.43,406.94 283.44,407.90 279.05,407.95 C285.39,407.45 291.44,404.36 299.00,398.37 C302.02,395.97 310.80,387.71 318.50,380.02 L 332.50 366.03 L 333.00 425.27 C333.13,440.22 333.17,454.01 333.13,464.62 ZM 296.16 311.51 C293.44,312.88 290.97,314.00 290.68,314.00 C290.39,314.00 290.10,304.54 290.04,292.98 L 289.93 271.96 L 308.72 272.23 L 327.50 272.50 L 327.69 290.35 L 327.88 308.20 L 324.69 307.63 C315.30,305.94 313.12,305.91 307.30,307.42 C303.90,308.30 298.89,310.14 296.16,311.51 ZM 166.86 437.39 C168.50,436.24 170.29,435.95 173.03,436.39 C176.54,436.95 177.12,436.71 179.37,433.75 C181.66,430.74 188.00,418.06 188.00,416.49 C188.00,414.10 200.09,389.74 204.71,382.82 C209.02,376.37 217.92,367.13 222.92,363.92 C224.38,362.98 225.05,361.89 224.60,361.16 C223.45,359.30 218.70,362.55 211.65,370.03 C200.65,381.69 193.40,394.26 183.99,418.00 C178.50,431.85 178.08,432.40 172.42,433.14 C169.71,433.49 166.54,434.09 165.38,434.47 C163.70,435.02 162.77,434.47 160.95,431.83 C159.68,430.00 155.63,424.67 151.95,420.00 C145.83,412.22 145.22,411.02 144.81,405.85 C144.39,400.68 144.61,399.91 147.32,396.85 C148.95,395.01 153.60,386.75 157.66,378.50 C171.44,350.44 178.02,341.24 190.33,332.81 C193.53,330.62 195.98,328.65 195.77,328.44 C195.56,328.23 193.61,328.53 191.44,329.12 C186.44,330.46 175.06,341.75 168.54,351.83 C166.00,355.76 160.25,366.50 155.76,375.69 C150.29,386.89 146.34,393.66 143.78,396.22 C140.14,399.86 140.03,400.17 141.36,402.72 C142.39,404.69 142.50,406.13 141.77,408.24 C141.01,410.41 141.12,411.50 142.23,412.80 C143.03,413.73 148.07,420.01 153.42,426.75 C158.77,433.49 163.46,439.00 163.85,439.00 C164.24,439.00 165.59,438.27 166.86,437.39 ZM 196.28 371.55 C203.18,368.46 207.00,363.06 207.00,356.44 C207.00,352.50 206.49,351.29 203.60,348.40 C200.71,345.51 199.50,345.00 195.55,345.00 C192.99,345.00 189.64,345.65 188.10,346.45 C183.93,348.61 179.19,354.49 178.45,358.44 C177.54,363.26 180.47,368.99 185.00,371.25 C189.26,373.38 192.06,373.45 196.28,371.55 ZM 319.08 349.73 C326.71,344.58 329.38,335.15 324.96,328.94 C320.21,322.28 308.16,323.40 302.18,331.07 C297.44,337.13 297.57,344.13 302.50,348.75 C305.43,351.50 306.73,352.00 310.84,352.00 C314.24,352.00 316.72,351.32 319.08,349.73 ZM 242.97 430.00 C242.68,409.38 242.34,393.51 242.22,394.75 C242.10,395.99 241.60,397.00 241.11,397.00 C240.62,397.00 239.92,398.16 239.57,399.59 C239.21,401.01 237.83,403.26 236.50,404.59 C234.38,406.71 233.19,407.00 226.55,407.00 L 219.00 407.00 L 219.00 403.74 C219.00,401.95 219.42,399.03 219.93,397.26 C221.80,390.72 217.06,392.28 212.78,399.22 C215.49,394.14 218.10,389.89 220.29,387.13 C223.74,382.79 233.60,374.00 235.03,374.00 C235.51,374.00 237.48,376.69 239.41,379.98 L 242.92 385.97 L 243.04 427.07 C243.06,430.60 243.06,434.03 243.06,437.32 C243.04,434.95 243.01,432.50 242.97,430.00 ZM 278.47 311.50 C278.84,304.35 279.00,293.63 278.82,287.69 L 278.50 276.87 L 266.19 284.83 L 265.47 293.56 C264.87,300.66 264.53,301.93 263.62,300.39 C263.00,299.35 262.24,294.67 261.92,290.00 C261.60,285.33 261.27,295.17 261.17,311.87 L 261.00 342.24 L 261.00 311.94 L 261.01 281.50 L 269.88 275.78 C279.37,269.67 283.73,267.39 284.47,268.14 C285.31,268.97 285.15,319.25 284.31,319.91 C283.87,320.27 278.44,325.47 272.25,331.47 L 261.00 342.38 L 261.00 342.25 L 277.79 324.50 ZM 223.75 320.88 C227.46,321.23 230.88,320.83 234.75,319.59 C236.80,318.93 237.00,318.24 237.00,311.93 L 237.00 305.00 L 203.00 305.00 L 203.00 309.92 C203.00,314.51 203.35,316.62 204.63,317.50 C204.51,317.48 204.38,317.45 204.25,317.42 C202.20,317.00 202.00,316.40 202.00,310.48 L 202.00 304.00 L 238.00 304.00 L 238.00 313.85 C238.00,322.00 238.32,324.06 239.85,325.83 C240.87,327.00 242.01,327.66 242.39,327.28 C242.76,326.90 242.99,329.39 242.89,332.80 C242.78,336.21 242.66,338.98 242.60,338.96 C242.55,338.94 240.70,337.35 238.50,335.43 C236.30,333.50 230.62,329.30 225.88,326.09 C224.65,325.26 223.55,324.53 222.53,323.89 C222.78,323.71 223.09,323.22 223.38,322.45 C223.72,321.56 223.56,321.16 222.99,321.51 C222.44,321.84 222.00,322.54 222.00,323.06 C222.00,323.27 222.02,323.44 222.04,323.58 C217.38,320.67 214.37,319.60 207.35,318.07 C208.99,318.24 212.02,319.01 214.50,319.91 C217.25,320.91 220.18,321.51 221.00,321.24 C221.82,320.98 223.06,320.82 223.75,320.88 ZM 178.63 323.92 C181.24,322.31 182.03,321.12 182.12,318.67 C182.39,311.32 181.22,309.99 177.08,312.95 C175.78,313.87 175.02,314.52 174.59,315.44 C174.84,314.12 175.16,313.05 175.53,312.56 C176.34,311.49 177.00,310.91 177.00,311.28 C177.00,311.64 181.16,309.31 186.25,306.09 L 186.36 306.02 C191.81,302.58 194.42,300.93 195.68,301.65 C196.86,302.32 196.88,305.02 196.93,310.21 L 197.00 316.92 L 192.75 317.96 C190.41,318.53 185.60,320.46 182.07,322.25 C180.67,322.95 179.31,323.63 178.16,324.21 C178.32,324.11 178.47,324.02 178.63,323.92 ZM 274.16 353.30 C281.14,344.53 300.23,326.63 307.88,321.68 C316.20,316.30 313.46,315.37 304.75,320.62 C298.24,324.55 275.01,346.49 270.54,352.94 C269.13,354.98 266.18,357.66 263.99,358.89 C261.79,360.12 260.00,361.47 260.00,361.90 C260.00,365.91 267.98,361.07 274.16,353.30 ZM 362.97 308.04 C365.04,304.99 366.84,302.05 366.97,301.50 C367.09,300.95 367.68,299.60 368.26,298.50 C369.22,296.71 369.15,296.64 367.66,297.87 C366.25,299.04 365.98,299.04 365.88,297.87 C365.82,297.12 365.87,296.05 365.99,295.50 C366.12,294.95 366.31,292.92 366.41,291.00 C366.52,288.94 367.08,287.60 367.76,287.74 C368.46,287.88 368.68,287.32 368.29,286.32 C367.82,285.09 368.02,284.89 369.08,285.53 C370.29,286.26 370.30,286.14 369.13,284.69 C368.36,283.75 368.21,283.00 368.79,283.00 C370.92,283.00 369.22,279.79 364.61,275.11 C364.14,274.63 363.72,274.20 363.34,273.82 L 368.41 278.91 L 377.12 287.66 L 372.08 295.08 C369.30,299.16 365.27,305.00 363.11,308.05 C361.20,310.75 359.81,313.01 358.78,313.97 C359.53,313.21 360.47,311.79 361.66,310.00 C362.07,309.39 362.50,308.73 362.97,308.04 ZM 362.83 328.90 C367.18,325.70 375.12,315.44 376.93,310.69 C378.80,305.75 376.21,307.90 370.50,316.00 C363.85,325.43 359.61,329.00 355.03,329.00 C352.23,329.00 351.94,329.22 353.00,330.50 C354.93,332.83 358.21,332.29 362.83,328.90 ZM 257.99 366.07 C261.93,367.26 262.14,367.15 260.53,364.69 C258.18,361.10 254.41,358.19 251.84,357.97 C247.32,357.60 246.85,357.85 247.99,359.99 C249.08,362.02 253.48,364.69 257.99,366.07 ZM 417.08 355.36 C417.03,353.43 417.58,351.99 418.50,351.64 C419.63,351.20 420.00,351.81 420.00,354.09 C420.00,355.76 419.59,356.86 419.09,356.55 C418.58,356.24 417.94,356.55 417.66,357.24 C417.39,357.93 417.12,357.09 417.08,355.36 ZM 186.00 349.99 C186.00,350.67 187.09,350.84 189.15,350.50 C184.82,351.30 185.38,350.82 184.55,354.68 C184.43,355.28 184.38,355.85 184.40,356.40 C184.27,355.70 184.19,354.95 184.18,354.14 C184.15,351.88 184.55,349.78 185.06,349.46 C185.58,349.14 186.00,349.38 186.00,349.99 ZM 196.14 368.41 C196.28,368.29 196.40,368.15 196.50,368.00 C196.84,367.45 197.94,367.00 198.95,367.00 C200.26,367.00 200.97,365.97 201.46,363.36 C201.49,363.22 201.51,363.09 201.53,362.95 C201.50,363.23 201.46,363.52 201.41,363.83 C200.95,366.73 200.25,368.00 199.12,368.01 C198.40,368.02 197.17,368.19 196.14,368.41 ZM 318.37 486.77 C310.20,487.10 301.48,487.17 300.98,486.66 C301.37,487.06 310.17,487.01 318.37,486.77 ZM 242.83 468.29 C242.82,468.44 242.81,468.53 242.79,468.54 C242.56,468.78 239.74,467.65 236.91,466.36 C239.52,467.47 242.15,468.40 242.83,468.29 ZM 361.43 269.87 C361.63,269.80 361.88,269.73 362.17,269.65 C363.31,269.35 365.50,269.09 367.33,269.03 C365.76,269.22 364.18,269.44 363.09,269.61 ZM 199.48 429.65 C201.58,423.63 204.15,417.29 206.86,411.31 C204.14,417.47 201.26,424.56 199.48,429.65 ZM 192.99 350.84 C193.45,351.32 193.06,352.04 191.52,352.63 C192.33,352.32 193.00,351.55 193.00,350.92 C193.00,350.89 193.00,350.86 192.99,350.84 ZM 174.00 321.08 C174.03,323.11 174.18,324.82 174.39,325.58 C174.05,324.92 173.94,323.14 174.00,321.08 ZM 200.41 358.01 C199.40,357.07 197.77,356.64 195.50,356.70 C197.81,356.64 199.43,357.05 200.41,358.01 ZM 332.70 485.50 C332.69,485.52 332.67,485.53 332.64,485.55 C332.72,485.28 332.79,484.82 332.85,484.19 C332.80,484.99 332.75,485.43 332.70,485.50 ZM 188.27 361.50 C189.08,361.70 189.97,361.73 190.91,361.52 C189.95,361.73 189.06,361.72 188.27,361.50 ZM 192.72 368.39 C192.73,368.40 192.77,368.43 192.82,368.47 C192.78,368.44 192.75,368.42 192.72,368.39 Z" fill="rgb(113,177,59)"/>
<path d="M 296.16 311.51 C297.99,310.59 300.85,309.46 303.57,308.55 C295.72,311.32 287.79,317.34 273.57,331.09 C268.80,335.70 264.28,339.72 261.71,341.70 L 272.25 331.47 C278.44,325.47 283.87,320.27 284.31,319.91 C285.15,319.25 285.31,268.97 284.47,268.14 C283.73,267.39 279.37,269.67 269.88,275.78 L 261.01 281.50 L 261.00 311.94 L 261.00 342.23 C260.30,342.73 259.83,343.00 259.62,343.00 C258.73,343.00 258.00,343.61 258.00,344.35 C258.00,346.01 254.45,349.33 253.19,348.85 C252.69,348.66 249.40,345.97 245.89,342.88 C234.62,332.97 227.88,327.33 222.53,323.89 L 222.53 323.89 C223.55,324.53 224.65,325.26 225.88,326.09 C230.62,329.30 236.30,333.50 238.50,335.43 C240.70,337.35 242.55,338.94 242.60,338.96 C242.66,338.98 242.78,336.21 242.89,332.80 C242.99,329.39 242.76,326.90 242.39,327.28 C242.01,327.66 240.87,327.00 239.85,325.83 C238.32,324.06 238.00,322.00 238.00,313.85 L 238.00 304.00 L 202.00 304.00 L 202.00 310.48 C202.00,316.40 202.20,317.00 204.25,317.42 C204.38,317.45 204.51,317.48 204.63,317.50 C204.74,317.58 204.86,317.64 204.98,317.70 C200.29,317.06 196.07,317.20 191.89,318.19 C192.20,318.10 192.49,318.02 192.75,317.96 L 197.00 316.92 L 196.93 310.21 C196.88,305.02 196.86,302.32 195.68,301.65 C194.42,300.93 191.81,302.58 186.36,306.02 L 186.25 306.09 C181.16,309.31 177.00,311.64 177.00,311.28 C177.00,310.91 176.34,311.49 175.53,312.56 C175.16,313.05 174.84,314.12 174.59,315.44 C174.08,316.51 174.00,317.93 174.00,320.57 C174.00,320.74 174.00,320.91 174.00,321.08 C173.94,323.14 174.05,324.92 174.39,325.58 C174.46,325.85 174.55,326.00 174.63,326.00 C174.95,326.00 176.48,325.22 178.16,324.21 C178.59,323.99 179.06,323.76 179.54,323.52 C176.35,325.43 173.40,327.00 172.97,327.00 C172.54,327.00 172.43,324.52 172.71,321.50 C173.07,317.80 172.87,316.00 172.12,316.00 C171.41,316.00 171.00,318.36 171.00,322.44 C171.00,328.54 170.78,329.13 166.91,333.61 C164.66,336.21 161.00,340.79 158.78,343.80 C155.87,347.74 154.53,348.89 154.00,347.89 C151.62,343.39 152.34,313.67 155.13,301.50 C159.53,282.27 161.88,275.36 169.08,260.44 C191.00,214.99 234.13,180.53 282.12,170.13 C315.49,162.90 354.70,167.81 383.50,182.83 C390.49,186.47 390.53,186.48 406.00,186.99 L 421.50 187.50 L 421.79 197.50 L 422.07 207.50 L 427.86 213.50 C442.27,228.43 450.59,240.03 459.03,257.00 C471.93,282.94 476.69,304.91 475.70,334.00 C475.07,352.60 473.11,363.65 467.57,380.00 C464.56,388.88 457.32,404.99 454.77,408.49 C454.36,409.05 451.33,413.55 448.03,418.50 C444.73,423.45 437.43,432.23 431.82,438.00 C426.21,443.77 421.96,447.94 422.37,447.25 C423.79,444.88 421.18,446.01 416.84,449.64 C415.48,450.79 413.10,452.62 410.53,454.54 C413.36,452.38 416.07,450.19 417.75,448.65 L 422.00 444.75 L 422.00 393.37 C422.00,364.48 421.62,342.00 421.12,342.00 C420.81,342.00 419.82,342.89 418.59,344.22 C419.56,342.83 419.91,342.00 419.42,342.00 C418.96,342.00 420.36,340.19 422.51,337.99 L 426.43 333.97 L 435.70 343.20 C441.47,348.95 445.31,352.07 445.87,351.47 C446.37,350.93 447.10,330.07 447.50,305.10 L 448.21 259.71 L 440.36 260.39 C436.03,260.77 428.00,261.74 422.50,262.53 C418.95,263.05 412.35,263.89 405.37,264.73 C411.69,263.90 416.02,263.22 417.32,262.82 L 421.15 261.63 L 420.70 255.07 C420.46,251.45 419.27,244.45 418.06,239.50 C414.70,225.69 414.00,222.20 413.99,219.24 C413.98,216.55 413.85,216.49 407.24,216.24 C403.44,216.09 397.33,216.71 393.24,217.67 C385.15,219.56 385.09,219.65 383.43,231.50 C383.04,234.25 382.32,237.59 381.82,238.92 C381.04,241.02 380.73,241.15 379.50,239.92 C378.41,238.82 377.94,233.02 377.39,213.80 C376.95,198.20 377.18,191.55 375.29,190.88 C374.03,190.43 371.82,192.64 367.83,196.64 C366.80,197.66 365.66,198.81 364.39,200.05 L 356.00 208.26 L 356.00 262.25 C356.00,266.57 356.00,270.55 355.99,274.24 C355.99,280.67 355.99,286.16 356.00,290.84 C356.02,308.15 356.24,314.29 357.66,314.58 C357.89,314.63 358.15,314.52 358.45,314.28 C355.28,318.17 354.05,318.65 353.90,316.75 C353.85,316.06 353.50,316.58 353.13,317.91 C351.80,322.66 349.65,322.74 343.28,318.28 C336.40,313.45 325.56,308.43 318.78,306.66 C320.40,306.88 322.32,307.20 324.69,307.63 L 327.88 308.20 L 327.69 290.35 L 327.50 272.50 L 308.72 272.23 L 289.93 271.96 L 290.04 292.98 C290.10,304.54 290.39,314.00 290.68,314.00 C290.97,314.00 293.44,312.88 296.16,311.51 ZM 333.13 464.62 C333.17,454.01 333.13,440.22 333.00,425.27 L 332.50 366.03 L 318.50 380.02 C310.80,387.71 302.02,395.97 299.00,398.37 C298.17,399.02 297.36,399.65 296.56,400.23 C296.87,399.99 297.19,399.74 297.50,399.48 C299.70,397.67 309.61,388.16 319.52,378.35 C329.42,368.53 338.98,359.69 340.74,358.71 L 343.95 356.92 L 348.51 361.12 L 353.08 365.32 L 352.61 413.41 C352.36,439.86 351.90,462.85 351.60,464.50 C351.29,466.15 350.85,471.30 350.62,475.95 C350.15,485.51 349.88,485.81 341.85,485.93 L 337.20 486.00 L 337.24 482.25 C337.32,473.95 336.76,468.00 335.90,468.00 C335.40,468.00 334.90,457.36 334.77,443.75 L 334.54 419.50 L 333.50 485.48 L 332.60 485.67 C332.62,485.64 332.63,485.59 332.64,485.55 C332.67,485.53 332.69,485.52 332.70,485.50 C332.75,485.43 332.80,484.99 332.85,484.19 C333.12,481.30 333.21,474.65 333.13,464.62 ZM 422.31 332.35 C423.36,330.76 423.97,329.66 423.97,329.25 C424.03,326.68 426.56,328.20 433.92,335.25 L 441.50 342.50 L 441.79 334.22 L 442.08 325.93 L 438.29 321.50 C436.21,319.06 433.95,317.05 433.29,317.03 C432.62,317.01 431.60,316.12 431.02,315.03 C430.44,313.95 428.17,312.59 425.98,312.00 C423.79,311.41 422.00,310.65 422.00,310.33 C422.00,310.00 423.15,308.66 424.56,307.36 C429.05,303.19 424.61,301.16 419.61,305.10 C416.33,307.67 414.25,307.02 413.82,303.31 C413.55,300.90 413.10,300.54 410.75,300.79 C408.31,301.04 408.00,300.74 408.00,298.16 C408.00,296.56 407.33,294.68 406.50,294.00 C405.67,293.32 405.00,291.46 405.00,289.88 C405.00,286.67 403.91,286.24 401.60,288.54 C400.21,289.93 399.83,289.82 397.78,287.42 C395.60,284.87 388.66,279.24 381.35,274.09 C378.40,272.02 377.47,271.83 374.60,272.71 C372.31,273.41 370.68,273.40 369.38,272.68 C367.38,271.57 372.13,277.33 377.68,282.73 C379.51,284.51 381.00,286.44 381.00,287.02 C381.00,287.99 380.40,288.98 371.23,301.52 C373.59,298.06 375.64,294.88 376.90,292.61 L 380.17 286.72 L 373.39 279.89 C369.66,276.13 366.96,272.71 367.39,272.28 C368.34,271.32 405.24,267.15 413.52,267.06 C420.48,266.99 423.61,268.40 431.15,275.00 C443.05,285.41 442.73,284.87 443.53,295.50 C444.43,307.60 443.58,343.31 442.37,343.71 C441.87,343.88 438.11,340.63 434.01,336.51 C429.91,332.38 426.09,329.02 425.53,329.04 C425.10,329.05 423.80,330.42 422.31,332.35 ZM 242.83 468.29 C242.90,468.28 242.95,468.26 242.98,468.22 C243.23,467.87 243.26,454.54 243.06,437.32 L 243.06 437.32 C243.06,434.03 243.06,430.60 243.04,427.07 L 242.92 385.97 L 239.41 379.98 C237.49,376.71 235.53,374.02 235.04,374.00 C235.52,374.00 237.08,375.99 238.50,378.42 C239.93,380.84 241.75,383.37 242.55,384.04 C243.35,384.70 244.00,386.24 244.00,387.45 C244.00,388.79 244.99,390.19 246.50,391.00 C247.88,391.74 249.00,392.75 249.00,393.26 C249.00,393.76 250.95,396.07 253.33,398.39 L 257.66 402.59 L 257.29 418.55 C257.08,427.32 256.54,442.03 256.08,451.23 C255.62,460.44 255.37,469.78 255.52,471.98 C255.74,475.19 255.46,475.98 254.15,475.89 C251.29,475.69 241.58,471.64 242.91,471.20 C244.26,470.75 243.81,470.42 235.89,466.12 C235.04,465.66 234.23,465.19 233.51,464.77 C234.51,465.29 235.71,465.84 236.91,466.36 C239.74,467.65 242.56,468.78 242.79,468.54 C242.81,468.53 242.82,468.44 242.83,468.29 ZM 260.15 347.90 C252.07,355.35 250.70,355.03 245.52,353.83 C241.34,352.86 239.98,352.07 239.56,350.37 C238.92,347.82 223.87,332.00 222.07,332.00 C221.33,332.00 221.10,331.25 221.48,330.06 C222.00,328.43 220.90,327.55 214.69,324.56 C208.49,321.58 206.52,321.04 200.54,321.00 C200.82,321.00 201.11,321.00 201.40,321.00 C209.90,321.00 211.24,321.27 216.61,324.11 C224.37,328.21 231.48,333.70 242.07,343.75 C248.72,350.06 251.42,352.00 253.57,352.00 C254.87,352.00 256.56,351.05 260.15,347.90 ZM 339.20 319.51 C347.59,325.29 350.48,326.24 354.33,323.01 C352.80,324.38 351.53,325.06 350.15,325.49 C347.81,326.20 347.81,326.23 351.60,330.10 C354.48,333.05 355.12,334.28 354.25,335.15 C353.37,336.03 351.71,335.36 347.42,332.40 C344.30,330.26 340.93,327.45 339.92,326.18 C338.92,324.90 336.26,322.52 334.01,320.89 C331.76,319.26 329.50,316.82 328.99,315.47 C328.47,314.11 327.25,313.00 326.27,312.99 C325.30,312.99 323.21,312.32 321.64,311.49 C319.82,310.55 316.40,310.08 312.86,310.09 C313.47,310.06 314.08,310.05 314.67,310.04 C323.33,309.99 327.97,311.78 339.20,319.51 ZM 415.70 306.37 C416.09,306.76 418.63,304.85 421.35,302.13 C424.93,298.54 426.10,296.71 425.61,295.43 C425.02,293.89 424.51,294.08 421.48,297.02 C419.58,298.86 417.90,300.17 417.73,299.93 C417.57,299.69 416.86,298.74 416.15,297.81 C415.14,296.49 415.12,295.65 416.05,293.91 C416.09,293.82 416.14,293.74 416.18,293.66 C416.63,292.83 416.89,292.35 416.75,292.18 C416.57,291.95 415.60,292.35 413.26,293.30 C413.10,293.37 412.93,293.44 412.75,293.51 C410.79,294.31 408.61,290.18 410.07,288.42 C410.71,287.64 411.84,287.00 412.56,287.00 C414.55,287.00 415.45,284.90 413.88,283.90 C411.80,282.59 411.13,282.78 408.45,285.45 C405.48,288.43 405.30,292.06 408.01,294.51 C409.34,295.72 409.81,297.01 409.40,298.32 C408.90,299.91 409.12,300.17 410.51,299.63 C412.78,298.76 415.00,300.66 415.00,303.46 C415.00,304.67 415.32,305.98 415.70,306.37 ZM 257.99 366.07 C253.48,364.69 249.08,362.02 247.99,359.99 C246.85,357.85 247.32,357.60 251.84,357.97 C254.41,358.19 258.18,361.10 260.53,364.69 C262.14,367.15 261.93,367.26 257.99,366.07 ZM 244.16 449.25 C244.02,466.21 244.21,469.00 245.50,469.00 C246.44,469.00 247.00,468.05 247.00,466.44 C247.00,465.03 246.59,464.13 246.10,464.44 C245.59,464.75 245.32,462.27 245.47,458.75 C245.63,455.31 245.43,447.33 245.04,441.00 C244.36,430.05 244.32,430.45 244.16,449.25 ZM 299.92 486.31 C290.08,485.82 281.63,485.01 281.05,484.14 C280.75,483.68 277.23,482.51 273.24,481.54 C271.14,481.03 269.17,480.46 267.74,479.96 C271.64,481.19 280.13,482.92 290.48,484.55 C294.54,485.19 298.19,485.88 299.92,486.31 ZM 384.73 470.64 C383.71,471.15 382.63,471.68 381.52,472.21 C386.33,469.84 391.10,467.19 394.27,465.05 C396.76,463.37 399.12,462.00 399.52,462.00 C399.85,462.00 401.10,461.27 402.81,460.12 C399.48,462.56 397.00,464.66 397.00,465.08 C397.00,465.59 396.32,466.00 395.48,466.00 C394.64,466.00 389.81,468.09 384.73,470.64 ZM 409.09 355.39 C402.10,363.25 395.33,369.79 390.59,373.13 C394.59,370.31 402.52,362.49 409.09,355.39 ZM 318.37 486.77 C323.04,486.63 327.52,486.42 330.15,486.19 C327.95,486.58 323.57,486.76 318.30,486.77 ZM 404.46 354.98 C409.14,349.59 413.89,343.74 417.53,338.96 C413.49,344.40 408.92,349.98 404.46,354.98 ZM 362.45 309.00 C362.66,308.69 362.88,308.37 363.11,308.05 C365.27,305.00 369.30,299.16 372.08,295.08 L 377.12 287.66 L 372.10 295.08 C368.13,300.95 364.96,305.53 362.45,309.00 ZM 361.09 271.30 C362.51,272.88 365.19,275.67 368.33,278.83 L 363.34 273.82 C362.21,272.65 361.48,271.86 361.09,271.30 ZM 187.07 322.77 C182.20,324.55 177.88,327.91 171.90,333.90 C177.97,327.83 182.13,324.51 187.07,322.77 ZM 363.73 269.51 C364.75,269.36 366.04,269.18 367.33,269.03 C367.54,269.02 367.75,269.01 367.95,269.01 C366.42,269.19 364.96,269.37 363.73,269.51 ZM 375.13 373.55 C379.54,374.52 383.56,373.64 387.96,370.83 C387.32,371.27 386.74,371.62 386.22,371.89 C382.50,373.79 379.05,374.43 375.13,373.55 ZM 282.12 407.50 C281.10,407.72 280.08,407.87 279.05,407.95 C278.74,407.96 278.42,407.96 278.11,407.95 C279.46,407.91 280.80,407.76 282.12,407.50 ZM 310.16 306.76 C308.79,307.06 307.29,307.43 305.83,307.84 C305.73,307.87 305.62,307.90 305.51,307.93 C306.14,307.74 306.74,307.57 307.30,307.42 C308.35,307.15 309.28,306.93 310.16,306.76 ZM 371.50 268.56 C372.42,268.47 373.32,268.38 374.23,268.29 C373.25,268.40 372.33,268.50 371.50,268.60 ZM 222.05 323.59 C220.15,322.40 218.42,321.49 216.71,320.76 C218.47,321.49 220.12,322.38 222.04,323.58 ZM 303.99 311.34 C301.55,312.21 298.73,313.76 295.42,316.07 C298.72,313.76 301.54,312.22 303.99,311.34 ZM 207.57 318.12 C207.47,318.10 207.37,318.09 207.27,318.07 C207.29,318.07 207.32,318.07 207.35,318.07 C207.42,318.09 207.49,318.11 207.57,318.12 Z" fill="rgb(198,213,181)"/>
<path d="M 0.00 313.50 L 0.00 0.00 L 313.50 0.00 L 627.00 0.00 L 627.00 313.50 L 627.00 627.00 L 313.50 627.00 L 0.00 627.00 L 0.00 313.50 ZM 330.50 486.12 L 333.50 485.48 L 334.02 452.49 L 334.54 419.50 L 334.77 443.75 C334.90,457.36 335.40,468.00 335.90,468.00 C336.76,468.00 337.32,473.95 337.24,482.25 L 337.20 486.00 L 341.85 485.93 C349.88,485.81 350.15,485.51 350.62,475.95 C350.85,471.30 351.29,466.15 351.60,464.50 C351.90,462.85 352.36,439.86 352.61,413.41 L 353.08 365.32 L 348.51 361.12 L 343.95 356.92 L 340.74 358.71 C338.98,359.69 329.42,368.53 319.52,378.35 C309.61,388.16 299.70,397.67 297.50,399.48 C286.02,408.91 276.38,410.31 262.75,404.53 C261.10,403.83 261.00,405.94 261.00,440.89 C261.00,476.96 261.05,478.00 262.94,478.00 C264.01,478.00 265.13,478.40 265.43,478.89 C265.73,479.38 269.25,480.57 273.24,481.54 C277.23,482.51 280.75,483.68 281.05,484.14 C282.34,486.09 323.00,487.73 330.50,486.12 ZM 370.00 477.22 C373.02,476.15 379.65,473.19 384.73,470.64 C389.81,468.09 394.64,466.00 395.48,466.00 C396.32,466.00 397.00,465.59 397.00,465.08 C397.00,464.58 400.49,461.72 404.75,458.73 C409.01,455.73 414.46,451.65 416.84,449.64 C421.18,446.01 423.79,444.88 422.37,447.25 C421.96,447.94 426.21,443.77 431.82,438.00 C437.43,432.23 444.73,423.45 448.03,418.50 C451.33,413.55 454.36,409.05 454.77,408.49 C457.32,404.99 464.56,388.88 467.57,380.00 C473.11,363.65 475.07,352.60 475.70,334.00 C476.69,304.91 471.93,282.94 459.03,257.00 C450.59,240.03 442.27,228.43 427.86,213.50 L 422.07 207.50 L 421.79 197.50 L 421.50 187.50 L 406.00 186.99 C390.53,186.48 390.49,186.47 383.50,182.83 C354.70,167.81 315.49,162.90 282.12,170.13 C234.13,180.53 191.00,214.99 169.08,260.44 C161.88,275.36 159.53,282.27 155.13,301.50 C152.34,313.67 151.62,343.39 154.00,347.89 C154.53,348.89 155.87,347.74 158.78,343.80 C161.00,340.79 164.66,336.21 166.91,333.61 C170.78,329.13 171.00,328.54 171.00,322.44 C171.00,318.36 171.41,316.00 172.12,316.00 C172.87,316.00 173.07,317.80 172.71,321.50 C172.43,324.52 172.54,327.00 172.97,327.00 C173.41,327.00 176.38,325.42 179.59,323.49 C189.59,317.47 197.78,316.04 208.86,318.38 C219.34,320.60 224.31,323.89 245.89,342.88 C249.40,345.97 252.69,348.66 253.19,348.85 C254.45,349.33 258.00,346.01 258.00,344.35 C258.00,343.61 258.73,343.00 259.62,343.00 C260.52,343.00 266.79,337.64 273.57,331.09 C289.16,316.02 297.19,310.23 305.83,307.84 C309.48,306.83 313.46,306.00 314.69,306.00 C320.10,306.00 334.75,312.29 343.28,318.28 C349.65,322.74 351.80,322.66 353.13,317.91 C353.50,316.58 353.85,316.06 353.90,316.75 C354.19,320.34 358.32,315.42 372.10,295.08 L 377.12 287.66 L 368.33 278.83 C363.50,273.97 359.76,269.98 360.02,269.95 C360.28,269.92 363.88,269.49 368.00,269.01 C372.12,268.52 383.83,267.19 394.00,266.05 C404.17,264.92 417.00,263.33 422.50,262.53 C428.00,261.74 436.03,260.77 440.36,260.39 L 448.21 259.71 L 447.50 305.10 C447.10,330.07 446.37,350.93 445.87,351.47 C445.31,352.07 441.47,348.95 435.70,343.20 L 426.43 333.97 L 422.51 337.99 C420.36,340.19 418.96,342.00 419.42,342.00 C422.18,342.00 398.55,367.51 390.59,373.13 C384.72,377.27 382.99,378.00 379.03,378.00 C374.24,378.00 366.02,374.52 360.44,370.13 C355.14,365.96 355.17,365.80 355.49,394.75 C355.65,409.46 355.83,435.07 355.89,451.65 L 356.00 481.80 L 360.25 480.48 C362.59,479.75 366.98,478.28 370.00,477.22 ZM 255.52 471.98 C255.37,469.78 255.62,460.44 256.08,451.23 C256.54,442.03 257.08,427.32 257.29,418.55 L 257.66 402.59 L 253.33 398.39 C250.95,396.07 249.00,393.76 249.00,393.26 C249.00,392.75 247.88,391.74 246.50,391.00 C244.99,390.19 244.00,388.79 244.00,387.45 C244.00,386.24 243.35,384.70 242.55,384.04 C241.75,383.37 239.93,380.84 238.50,378.42 C237.08,375.99 235.52,374.00 235.04,374.00 C233.60,374.00 223.75,382.78 220.29,387.13 C214.32,394.66 205.19,413.31 199.48,429.65 L 197.68 434.80 L 200.09 437.71 C201.42,439.32 204.75,442.52 207.50,444.84 C210.25,447.15 214.07,450.43 216.00,452.13 C217.93,453.82 221.98,456.84 225.00,458.82 C228.02,460.81 230.73,462.72 231.00,463.08 C231.27,463.44 233.47,464.80 235.89,466.12 C243.81,470.42 244.26,470.75 242.91,471.20 C241.58,471.64 251.29,475.69 254.15,475.89 C255.46,475.98 255.74,475.19 255.52,471.98 ZM 175.15 457.25 C183.35,451.03 190.71,440.61 195.98,427.76 C207.41,399.87 212.12,391.03 220.35,382.00 C225.15,376.73 234.27,369.00 235.69,369.00 C236.23,369.00 239.10,372.71 242.06,377.25 C248.56,387.21 257.66,397.00 263.90,400.75 C267.96,403.18 269.50,403.50 277.00,403.50 C285.42,403.50 285.56,403.46 292.00,399.05 C295.58,396.60 307.76,385.52 319.07,374.43 C330.38,363.34 340.60,353.75 341.78,353.12 C343.69,352.09 344.99,352.87 354.04,360.44 C370.03,373.81 377.35,376.41 386.22,371.89 C392.95,368.46 409.94,350.04 420.75,334.48 C422.81,331.51 424.96,329.06 425.53,329.04 C426.09,329.02 429.91,332.38 434.01,336.51 C438.11,340.63 441.87,343.88 442.37,343.71 C443.58,343.31 444.43,307.60 443.53,295.50 C442.73,284.87 443.05,285.41 431.15,275.00 C423.61,268.40 420.48,266.99 413.52,267.06 C405.24,267.15 368.34,271.32 367.39,272.28 C366.96,272.71 369.66,276.13 373.39,279.89 L 380.17 286.72 L 376.90 292.61 C372.92,299.76 361.09,316.10 356.18,321.25 C351.24,326.42 348.87,326.18 339.20,319.51 C327.97,311.78 323.33,309.99 314.67,310.04 C310.73,310.07 305.92,310.65 303.99,311.34 C297.09,313.81 287.26,321.58 271.94,336.67 C259.32,349.10 255.84,352.00 253.57,352.00 C251.42,352.00 248.72,350.06 242.07,343.75 C231.48,333.70 224.37,328.21 216.61,324.11 C211.24,321.27 209.90,321.00 201.40,321.00 C187.47,321.00 182.71,323.08 171.90,333.90 C162.39,343.42 156.93,351.94 145.12,375.68 C137.11,391.79 134.30,395.45 126.82,399.46 C123.89,401.02 121.33,402.45 121.11,402.62 C120.90,402.80 121.54,404.19 122.53,405.72 C124.26,408.40 126.25,411.14 143.14,434.00 C147.41,439.77 152.36,446.52 154.15,449.00 C161.67,459.41 164.13,462.00 166.51,462.00 C167.82,462.00 171.70,459.86 175.15,457.25 ZM 143.24 261.00 C149.21,249.04 149.98,246.84 149.99,241.71 C150.01,232.06 145.56,225.75 135.05,220.49 C124.56,215.24 112.70,217.28 106.50,225.41 C103.40,229.47 93.00,251.72 93.00,254.28 C93.00,256.71 95.64,257.53 98.51,255.99 C100.60,254.88 101.85,255.13 108.69,258.08 C122.81,264.15 130.46,268.45 130.85,270.54 C131.37,273.36 133.07,275.13 134.91,274.79 C135.83,274.62 139.34,268.80 143.24,261.00 ZM 502.50 272.08 C506.59,269.78 506.38,267.58 502.04,267.17 C496.92,266.68 493.52,263.71 491.01,257.52 C488.42,251.15 488.82,250.15 495.26,246.87 C500.87,244.00 503.29,244.66 504.45,249.35 C505.30,252.80 505.16,253.37 503.04,254.97 C500.00,257.27 500.91,260.01 504.72,259.98 C507.85,259.95 515.56,256.71 518.23,254.29 C519.20,253.41 520.00,251.81 520.00,250.73 C520.00,249.04 519.53,248.87 516.51,249.43 C513.34,250.03 512.84,249.79 511.00,246.79 C509.89,244.98 509.10,242.89 509.24,242.15 C509.46,240.98 518.01,237.00 520.31,237.00 C520.75,237.00 522.26,239.50 523.66,242.57 C525.50,246.59 526.03,249.01 525.57,251.32 C524.30,257.70 524.41,258.49 526.65,258.81 C527.96,258.99 530.22,257.87 532.43,255.93 C535.84,252.93 535.97,252.61 534.58,250.49 C533.77,249.25 531.07,243.45 528.57,237.60 C521.72,221.58 520.25,219.00 517.93,219.00 C516.60,219.00 515.56,219.97 514.92,221.80 C513.73,225.22 511.76,226.42 496.52,232.95 C486.40,237.29 484.21,237.91 482.40,236.95 C479.06,235.16 476.47,236.15 476.67,239.13 C476.76,240.53 479.57,248.00 482.92,255.73 C486.26,263.45 489.00,270.48 489.00,271.34 C489.00,275.16 496.33,275.57 502.50,272.08 ZM 472.81 221.80 C473.08,218.56 474.51,216.78 484.65,207.03 C495.47,196.63 496.41,195.95 499.84,196.22 C502.94,196.46 503.55,196.17 503.81,194.32 C504.19,191.64 497.80,184.24 494.35,183.37 C492.85,183.00 487.17,184.37 479.00,187.08 C471.88,189.44 465.76,191.10 465.42,190.76 C464.61,189.95 466.35,184.65 471.13,173.38 C473.26,168.36 475.00,163.37 475.00,162.29 C475.00,159.19 467.78,152.00 464.65,152.00 C462.32,152.00 462.00,152.40 462.00,155.28 C462.00,158.01 460.88,159.64 455.25,165.10 C443.50,176.50 438.30,180.28 434.20,180.40 C428.76,180.55 428.93,183.02 434.78,189.16 C440.44,195.09 443.00,195.25 443.00,189.68 C443.00,186.92 443.96,185.37 448.25,181.20 C454.47,175.16 459.00,171.55 459.00,172.63 C459.00,173.06 456.93,178.58 454.41,184.89 C451.88,191.20 449.57,197.86 449.28,199.69 C448.55,204.15 449.66,204.07 466.54,198.43 C474.05,195.92 480.40,194.07 480.64,194.31 C480.89,194.55 477.61,197.96 473.36,201.88 C466.26,208.41 465.27,209.00 461.31,209.00 C457.39,209.00 457.00,209.22 457.00,211.47 C457.00,213.15 458.93,215.92 462.97,220.05 C469.87,227.11 472.33,227.54 472.81,221.80 ZM 168.43 215.97 C173.86,210.17 174.12,207.50 169.27,207.50 C166.37,207.50 163.13,205.02 163.03,202.73 C162.99,201.64 171.01,193.07 173.12,191.93 C175.90,190.45 180.00,192.48 180.00,195.35 C180.00,199.50 182.22,200.29 186.02,197.49 C190.61,194.10 197.00,186.19 197.00,183.90 C197.00,182.28 196.29,182.05 191.75,182.21 C187.36,182.36 183.76,181.29 169.71,175.66 C160.47,171.96 151.59,168.67 149.97,168.34 C146.84,167.72 142.00,170.07 142.00,172.22 C142.00,172.86 143.98,177.24 146.40,181.95 C155.07,198.77 160.15,211.16 159.93,214.91 C159.81,216.89 159.78,219.06 159.86,219.75 C160.16,222.44 163.94,220.77 168.43,215.97 ZM 222.54 169.96 C224.80,167.60 225.08,166.80 224.08,165.60 C223.41,164.78 221.68,163.98 220.25,163.81 C217.34,163.46 214.69,160.07 205.71,145.18 C200.83,137.07 200.24,135.56 201.18,133.50 C202.53,130.54 201.64,128.00 199.25,128.00 C197.03,128.00 185.03,135.83 183.59,138.22 C182.29,140.37 183.88,142.22 187.17,142.38 C189.69,142.51 195.09,149.71 202.78,163.20 C206.43,169.61 206.91,171.09 206.07,173.32 C205.30,175.33 205.43,176.29 206.62,177.48 C208.02,178.88 208.74,178.73 213.98,175.93 C217.17,174.23 221.02,171.54 222.54,169.96 ZM 419.54 174.94 C419.90,174.36 419.66,172.59 419.01,171.01 C417.91,168.36 418.28,167.35 424.02,157.32 C432.20,143.05 434.56,140.00 437.43,140.00 C441.04,140.00 442.58,137.53 440.72,134.70 C438.95,131.99 428.18,126.00 425.08,126.00 C422.43,126.00 421.49,128.17 422.95,130.90 C424.26,133.35 421.06,140.28 412.44,153.64 C408.14,160.30 406.56,162.00 404.64,162.00 C403.32,162.00 401.71,162.64 401.07,163.42 C399.46,165.35 403.83,170.04 410.40,173.46 C415.65,176.18 418.49,176.64 419.54,174.94 ZM 254.36 156.41 C262.14,153.89 269.17,151.48 270.00,151.06 C271.93,150.08 272.42,144.27 271.02,139.07 C270.13,135.78 269.47,135.00 267.58,135.00 C265.19,135.00 264.04,137.13 264.01,141.60 C264.00,144.32 261.41,146.59 256.22,148.42 C252.64,149.69 251.84,149.70 250.64,148.50 C249.87,147.73 247.07,140.54 244.42,132.52 L 239.60 117.94 L 241.43 114.86 C242.94,112.30 243.01,111.62 241.87,110.90 C241.12,110.42 240.10,110.02 239.61,110.02 C237.82,109.98 224.46,114.24 223.25,115.23 C220.99,117.07 221.82,120.04 224.90,121.12 C228.32,122.31 230.22,126.23 235.10,142.21 C237.98,151.64 238.22,153.22 237.06,155.40 C235.51,158.29 236.24,161.00 238.58,161.00 C239.48,161.00 246.58,158.94 254.36,156.41 ZM 380.86 153.07 C396.08,145.31 400.15,119.83 387.65,110.63 C383.88,107.85 375.76,104.92 363.35,101.85 C355.61,99.93 353.96,99.79 352.58,100.93 C351.11,102.15 351.10,102.51 352.48,104.61 C354.60,107.85 354.42,109.92 350.93,122.26 C346.81,136.78 345.41,139.89 342.47,141.01 C341.11,141.53 340.00,142.61 340.00,143.42 C340.00,145.21 343.79,148.00 346.24,148.00 C347.22,148.00 348.81,148.41 349.76,148.92 C350.72,149.42 354.88,150.93 359.00,152.27 C368.53,155.36 375.84,155.63 380.86,153.07 ZM 312.40 146.05 C317.67,144.82 318.50,143.13 315.41,139.91 C313.41,137.81 312.79,135.92 312.33,130.38 C311.77,123.75 311.92,123.12 315.82,115.37 C319.52,108.01 324.61,102.00 327.15,102.00 C327.69,102.00 328.00,100.99 327.82,99.75 C327.53,97.72 326.88,97.47 321.00,97.21 C316.50,97.01 313.88,97.37 312.51,98.37 C310.55,99.80 310.55,99.85 312.45,101.95 C314.36,104.06 314.35,104.13 311.58,109.79 L 308.78 115.50 L 306.04 112.22 C301.89,107.24 300.22,103.77 301.75,103.25 C303.53,102.65 303.30,99.33 301.42,98.61 C300.55,98.27 296.47,98.00 292.35,98.00 C280.75,98.00 277.90,100.63 284.69,105.08 C286.72,106.41 290.99,111.28 294.19,115.91 C299.98,124.28 300.00,124.35 300.00,131.65 C300.00,137.90 299.70,139.17 298.00,140.23 C295.53,141.77 295.41,144.56 297.75,145.92 C299.92,147.19 307.22,147.25 312.40,146.05 ZM 244.16 449.25 C244.32,430.45 244.36,430.05 245.04,441.00 C245.43,447.33 245.63,455.31 245.47,458.75 C245.32,462.27 245.59,464.75 246.10,464.44 C246.59,464.13 247.00,465.03 247.00,466.44 C247.00,468.05 246.44,469.00 245.50,469.00 C244.21,469.00 244.02,466.21 244.16,449.25 ZM 192.67 368.33 C191.33,366.99 192.05,365.22 194.16,364.67 C196.02,364.18 196.14,363.87 195.01,362.51 C194.10,361.41 192.81,361.10 190.91,361.52 C186.82,362.42 183.63,358.99 184.55,354.68 C185.38,350.79 184.81,351.31 189.25,350.48 C191.80,350.00 193.00,350.14 193.00,350.92 C193.00,351.55 192.33,352.32 191.52,352.63 C190.43,353.05 190.29,353.68 191.00,355.00 C191.67,356.25 193.05,356.77 195.50,356.70 C200.39,356.56 202.33,358.73 201.46,363.36 C200.97,365.97 200.26,367.00 198.95,367.00 C197.94,367.00 196.84,367.45 196.50,368.00 C195.80,369.14 193.66,369.33 192.67,368.33 ZM 307.00 346.50 C307.00,345.67 306.33,345.00 305.50,345.00 C303.02,345.00 303.43,333.57 306.00,331.00 C309.81,327.19 312.67,329.21 309.47,333.44 C307.63,335.88 307.39,340.01 309.20,338.20 C309.86,337.54 311.05,337.00 311.85,337.00 C313.01,337.00 312.93,337.42 311.49,339.01 C309.56,341.15 310.23,343.17 312.22,341.18 C314.04,339.36 315.21,339.78 314.50,342.00 C314.05,343.42 314.32,344.00 315.42,344.00 C316.28,344.00 317.55,343.10 318.23,342.00 C319.63,339.76 323.00,339.28 323.00,341.31 C323.00,342.04 321.74,343.84 320.20,345.31 C317.89,347.52 316.47,348.00 312.20,348.00 C308.24,348.00 307.00,347.64 307.00,346.50 ZM 415.70 306.37 C415.32,305.98 415.00,304.67 415.00,303.46 C415.00,300.66 412.78,298.76 410.51,299.63 C409.12,300.17 408.90,299.91 409.40,298.32 C409.81,297.01 409.34,295.72 408.01,294.51 C405.30,292.06 405.48,288.43 408.45,285.45 C411.13,282.78 411.80,282.59 413.88,283.90 C415.45,284.90 414.55,287.00 412.56,287.00 C411.84,287.00 410.71,287.64 410.07,288.42 C408.61,290.18 410.79,294.31 412.75,293.51 C417.43,291.60 417.29,291.58 416.05,293.91 C415.12,295.65 415.14,296.49 416.15,297.81 C416.86,298.74 417.57,299.69 417.73,299.93 C417.90,300.17 419.58,298.86 421.48,297.02 C424.51,294.08 425.02,293.89 425.61,295.43 C426.10,296.71 424.93,298.54 421.35,302.13 C418.63,304.85 416.09,306.76 415.70,306.37 ZM 127.47 253.01 C115.79,247.97 106.98,243.12 106.31,241.37 C105.48,239.20 107.92,234.28 110.74,232.44 C114.74,229.81 124.63,230.27 130.72,233.36 C140.39,238.26 144.05,245.14 140.57,251.87 C137.84,257.14 137.16,257.20 127.47,253.01 ZM 159.32 193.79 C157.81,191.84 154.85,183.82 155.42,183.24 C156.07,182.59 167.00,187.01 167.00,187.92 C167.00,188.30 165.50,190.07 163.66,191.85 C161.06,194.37 160.10,194.80 159.32,193.79 ZM 360.92 145.14 C358.75,143.38 358.68,142.97 359.72,137.89 C361.49,129.23 365.02,116.85 366.60,113.81 C369.53,108.15 378.59,111.19 381.05,118.66 C383.49,126.05 380.11,139.21 374.41,144.49 C371.03,147.63 364.39,147.95 360.92,145.14 Z" fill="rgb(243,254,224)"/>
</g>
</svg>